<?xml version="1.0" encoding="utf-8"?>
<!-- Generator: Adobe Illustrator 24.1.0, SVG Export Plug-In . SVG Version: 6.00 Build 0)  -->
<svg version="1.1" id="Capa_1" xmlns="http://www.w3.org/2000/svg" xmlns:xlink="http://www.w3.org/1999/xlink" x="0px" y="0px"
	 viewBox="0 0 1721.8 1417.3" style="enable-background:new 0 0 1721.8 1417.3;" xml:space="preserve">
<style type="text/css">
	.st0{fill:url(#SVGID_1_);}
	.st1{fill:url(#SVGID_2_);}
</style>
<g>
	
		<linearGradient id="SVGID_1_" gradientUnits="userSpaceOnUse" x1="594.1744" y1="585.901" x2="864.0728" y2="585.901" gradientTransform="matrix(1 0 0 -1 0 1418.6771)">
		<stop  offset="0.1771" style="stop-color:#C59F85"/>
		<stop  offset="0.599" style="stop-color:#E3CB9F"/>
		<stop  offset="0.9063" style="stop-color:#FCF1D3"/>
	</linearGradient>
	<path class="st0" d="M827.2,816.6h-87.3c-2.1,0-3.4-1.3-3.4-3.4v-87c0-2.1-1.3-3.4-3.4-3.4h-24.8c-2.1,0-3.4,1.3-3.4,3.4v87
		c0,2.1-1.3,3.4-3.4,3.4H614c-2.1,0-3.4,1.3-3.4,3.4v24.7c0,2.1,1.3,3.4,3.4,3.4h87.3c2.1,0,3.4,1.3,3.4,3.4v87.9
		c0,2.1,1.3,3.4,3.4,3.4H733c2.1,0,3.4-1.3,3.4-3.4v-87c0-2.1,1.3-3.4,3.4-3.4h87.3c2.1,0,3.4-1.3,3.4-3.4v-24.7
		C830.6,818.3,829.3,816.6,827.2,816.6z"/>
	
		<linearGradient id="SVGID_2_" gradientUnits="userSpaceOnUse" x1="676.3872" y1="757.3586" x2="1136.3702" y2="757.3586" gradientTransform="matrix(1 0 0 -1 0 1418.6771)">
		<stop  offset="0.1771" style="stop-color:#C59F85"/>
		<stop  offset="0.599" style="stop-color:#E3CB9F"/>
		<stop  offset="0.9063" style="stop-color:#FCF1D3"/>
	</linearGradient>
	<path class="st1" d="M1075.9,474.5H707.7c-2.1,0-3.4,1.3-3.4,3.4v177.9c0,2.1,1.3,3.4,3.4,3.4h24.8c2.1,0,3.4-1.3,3.4-3.4V509.5
		c0-2.1,1.3-3.4,3.4-3.4h304.8c2.1,0,3.4,1.3,3.4,3.4v303.7c0,2.1-1.3,3.4-3.4,3.4H897.8c-2.1,0-3.4,1.3-3.4,3.4v24.7
		c0,2.1,1.3,3.4,3.4,3.4h178.1c2.1,0,3.4-1.3,3.4-3.4V477.9C1079.3,475.8,1078,474.5,1075.9,474.5z"/>
</g>
</svg>
