<?xml version="1.0" encoding="utf-8"?>
<!-- Generator: Adobe Illustrator 24.1.0, SVG Export Plug-In . SVG Version: 6.00 Build 0)  -->
<svg version="1.1" id="Capa_1" xmlns="http://www.w3.org/2000/svg" xmlns:xlink="http://www.w3.org/1999/xlink" x="0px" y="0px"
	 viewBox="0 0 56 51" style="enable-background:new 0 0 56 51;" xml:space="preserve">
<path d="M23.5,37.3h-9.3c-0.2,0-0.4-0.1-0.4-0.4v-9.3c0-0.2-0.1-0.4-0.4-0.4h-2.6c-0.2,0-0.4,0.1-0.4,0.4v9.3c0,0.2-0.1,0.4-0.4,0.4
	H0.8c-0.2,0-0.4,0.1-0.4,0.4v2.6c0,0.2,0.1,0.4,0.4,0.4h9.3c0.2,0,0.4,0.1,0.4,0.4v9.4c0,0.2,0.1,0.4,0.4,0.4h2.6
	c0.2,0,0.4-0.1,0.4-0.4v-9.3c0-0.2,0.1-0.4,0.4-0.4h9.3c0.2,0,0.4-0.1,0.4-0.4v-2.6C23.9,37.5,23.8,37.3,23.5,37.3z"/>
<path d="M50,0.8H10.8c-0.2,0-0.4,0.1-0.4,0.4v19c0,0.2,0.1,0.4,0.4,0.4h2.6c0.2,0,0.4-0.1,0.4-0.4V4.6c0-0.2,0.1-0.4,0.4-0.4h32.5
	c0.2,0,0.4,0.1,0.4,0.4v32.4c0,0.2-0.1,0.4-0.4,0.4H31.1c-0.2,0-0.4,0.1-0.4,0.4v2.6c0,0.2,0.1,0.4,0.4,0.4h19
	c0.2,0,0.4-0.1,0.4-0.4V1.2C50.4,1,50.3,0.8,50,0.8z"/>
</svg>
