<svg width="938" height="735" viewBox="0 0 938 735" fill="none" xmlns="http://www.w3.org/2000/svg">
<path fill-rule="evenodd" clip-rule="evenodd" d="M832.318 721.876L679.485 5.25877L680.441 5.05505L833.273 721.672L832.318 721.876Z" fill="#060606"/>
<path fill-rule="evenodd" clip-rule="evenodd" d="M149.518 78.4673L774.474 40.6998L774.533 41.6748L149.577 79.4422L149.518 78.4673Z" fill="#060606"/>
<path fill-rule="evenodd" clip-rule="evenodd" d="M118.211 734.335L98.7369 78.9692L99.7132 78.9402L119.187 734.306L118.211 734.335Z" fill="#060606"/>
<path fill-rule="evenodd" clip-rule="evenodd" d="M24.9392 721.289L937.821 618.345L937.931 619.316L25.0487 722.259L24.9392 721.289Z" fill="#060606"/>
<path fill-rule="evenodd" clip-rule="evenodd" d="M575.258 734.484L317.024 7.05746L317.944 6.73071L576.178 734.157L575.258 734.484Z" fill="#060606"/>
<path fill-rule="evenodd" clip-rule="evenodd" d="M108.623 721.456L726.702 0.270996L727.444 0.906581L109.365 722.092L108.623 721.456Z" fill="#060606"/>
<path fill-rule="evenodd" clip-rule="evenodd" d="M542.078 717.102L696.324 6.79041L697.279 6.99767L543.032 717.31L542.078 717.102Z" fill="#060606"/>
<path fill-rule="evenodd" clip-rule="evenodd" d="M24.7028 300.471L374.328 40.7952L374.91 41.5793L25.2851 301.255L24.7028 300.471Z" fill="#060606"/>
<path fill-rule="evenodd" clip-rule="evenodd" d="M81.3209 218.166L363.528 505.25L362.831 505.935L80.6244 218.85L81.3209 218.166Z" fill="#060606"/>
<path fill-rule="evenodd" clip-rule="evenodd" d="M1.16122 209.997L436.008 339.9L435.728 340.835L0.881653 210.933L1.16122 209.997Z" fill="#060606"/>
<path fill-rule="evenodd" clip-rule="evenodd" d="M435.748 339.894L673.866 279.801L674.105 280.748L435.987 340.841L435.748 339.894Z" fill="#060606"/>
<path d="M378.025 175.979L379.439 153.332L596.67 140.142L588.443 160.666L378.025 175.979Z" fill="url(#paint0_radial)"/>
<path d="M370.635 130.234L379.44 153.332L378.026 175.979L377.383 171.025L370.635 150.115V130.234Z" fill="#D4B396"/>
<path d="M609.717 114.663L370.635 130.234L379.44 153.332L596.67 140.142L609.717 114.663Z" fill="url(#paint1_radial)"/>
<path d="M377.64 176.365L320.569 180.29C320.569 180.29 317.355 179.904 317.484 181.384C317.612 182.863 315.62 178.038 317.034 176.365C318.448 174.692 321.019 174.885 321.019 174.885L377.319 171.025L377.64 176.365Z" fill="#705D5D"/>
<path d="M369.478 147.541L288.434 152.945C288.434 152.945 285.606 152.817 285.606 155.004C285.606 157.192 293.897 260.457 293.897 260.457L324.553 269.594L317.484 185.437C317.484 185.437 316.52 180.226 316.97 176.816C317.227 174.95 321.404 174.885 321.404 174.885L377.383 171.025L369.478 147.541Z" fill="url(#paint2_radial)"/>
<path d="M328.345 304.981L325.903 270.687L325.389 269.594L324.554 269.658C324.618 269.851 324.811 270.366 324.361 271.202C323.782 272.232 322.561 272.489 322.561 272.489C322.561 272.489 296.661 273.711 294.925 273.518C293.704 273.39 293.447 272.425 293.383 271.846L293.126 273.004C293.126 273.004 296.596 304.144 296.853 307.49C297.046 310.771 301.224 311.286 301.224 311.286L324.682 309.87C324.682 309.87 326.803 309.098 327.638 308.391C328.474 307.554 328.345 304.981 328.345 304.981Z" fill="url(#paint3_radial)"/>
<path d="M292.612 259.943L293.383 271.395C293.383 271.395 293.19 273.325 294.925 273.518C296.661 273.711 322.561 272.489 322.561 272.489C322.561 272.489 323.782 272.296 324.361 271.202C324.939 270.173 324.554 269.594 324.554 269.594L292.612 259.943Z" fill="#CAA88D"/>
<path d="M588.443 160.666L596.67 140.142L611.131 112.669L636.838 253.959L614.73 295.394L588.443 160.666Z" fill="url(#paint4_radial)"/>
<path d="M633.689 86.6754L611.131 112.669L636.838 253.959L657.983 249.069L661.968 235.944L633.689 86.6754Z" fill="url(#paint5_radial)"/>
<path d="M640.437 281.303L657.983 249.069L636.838 253.959L620 285.486L640.437 281.303Z" fill="#67492D"/>
<path d="M610.36 423.43L604.382 452.126L503.672 461.97C503.672 461.97 499.431 462.999 498.659 459.846C498.402 455.857 495.51 436.427 495.51 436.427C495.51 436.427 495.382 433.145 501.23 432.631C507.079 432.116 610.36 423.43 610.36 423.43Z" fill="#E5CCA5"/>
<path d="M438.31 452.576C435.097 452.833 349.104 461.133 349.104 461.133C349.104 461.133 343.127 460.747 344.027 466.088C344.284 467.503 344.927 474.259 345.827 483.459C353.346 482.687 427.256 475.417 431.433 474.902C435.868 474.387 436.318 472.135 436.318 472.135L438.053 464.543C438.053 464.543 440.881 453.541 441.331 451.74C441.524 451.032 441.459 450.196 441.395 449.423C441.138 450.646 440.367 452.383 438.31 452.576Z" fill="url(#paint6_radial)"/>
<path d="M351.74 559.059C351.225 560.345 350.133 561.568 347.948 561.761C342.87 562.211 322.69 564.077 322.69 564.077C322.69 564.077 318.384 565.107 317.484 558.094C317.227 555.97 316.391 547.091 315.363 535.639L316.713 559.573C316.713 559.573 318.898 572.248 319.476 575.208C320.055 578.232 324.232 577.846 324.232 577.846C324.232 577.846 342.742 576.752 348.205 575.851C353.668 574.951 352.704 572.57 352.704 572.57L351.74 559.059Z" fill="#593C21"/>
<path d="M333.294 335.928L340.749 424.009L309.514 459.268L305.144 460.233L212.403 469.176C212.403 469.176 207.84 469.948 207.84 464.994C207.84 460.04 207.84 443.247 207.84 443.247C207.84 443.247 206.491 438.228 212.339 437.07C218.252 435.912 301.481 429.028 301.481 429.028C301.481 429.028 306.301 428.642 307.072 426.39C307.522 425.103 307.201 421.822 307.201 421.822L300.131 339.081C300.131 339.081 300.26 335.156 303.023 334.834C305.787 334.577 329.759 332.711 329.759 332.711C329.759 332.711 332.844 333.805 333.294 335.928Z" fill="url(#paint7_radial)"/>
<path d="M309.514 459.268L305.144 460.233L212.403 469.176C212.403 469.176 209.254 469.691 208.162 466.988L207.712 468.211L220.244 492.982L309.579 486.676L340.814 452.383L340.557 424.267L309.514 459.268Z" fill="url(#paint8_radial)"/>
<path d="M341.263 429.156L434.261 422.079C434.261 422.079 437.667 421.307 438.31 423.43C438.953 425.553 441.523 448.201 441.523 448.201C441.523 448.201 441.523 452.319 438.31 452.576C435.097 452.833 349.104 461.133 349.104 461.133C349.104 461.133 343.127 460.747 344.027 466.087C344.927 471.428 352.189 555.327 352.189 555.327C352.189 555.327 353.025 561.246 347.947 561.697C342.87 562.147 322.689 564.013 322.689 564.013C322.689 564.013 318.383 565.042 317.484 558.029C316.584 551.016 309.514 467.696 309.514 467.696L341.263 429.156Z" fill="#C39F82"/>
<path fill-rule="evenodd" clip-rule="evenodd" d="M640.513 278.789L672.068 445.937C672.07 445.943 672.072 445.949 672.074 445.956C672.087 445.995 672.105 446.049 672.125 446.118C672.166 446.255 672.218 446.449 672.265 446.682C672.358 447.144 672.436 447.783 672.354 448.452C672.272 449.124 672.024 449.853 671.442 450.447C670.857 451.043 669.989 451.448 668.77 451.57C666.521 451.796 648.527 453.629 631.093 455.407C622.376 456.295 613.8 457.17 607.404 457.822L596.801 458.904L596.792 458.905L596.79 458.905C596.789 458.905 596.789 458.905 596.734 458.367L596.79 458.905L595.943 458.991L607.589 425.68L633.569 423.99C633.577 423.986 633.586 423.983 633.595 423.979C633.662 423.952 633.759 423.913 633.877 423.862C634.114 423.76 634.434 423.617 634.77 423.446C635.108 423.275 635.453 423.082 635.742 422.884C636.043 422.677 636.234 422.497 636.319 422.366L636.328 422.352L636.338 422.339C636.432 422.21 636.509 421.983 636.544 421.651C636.578 421.33 636.567 420.965 636.533 420.611C636.499 420.26 636.444 419.934 636.397 419.695C636.373 419.576 636.352 419.48 636.337 419.415C636.33 419.382 636.324 419.357 636.32 419.34L636.315 419.322L636.314 419.318L636.31 419.301L623.045 348.071L640.513 278.789ZM637.367 419.069L637.371 419.084C637.374 419.096 637.378 419.112 637.382 419.13C637.385 419.143 637.388 419.157 637.392 419.172C637.409 419.248 637.433 419.355 637.459 419.487C637.51 419.749 637.572 420.111 637.61 420.507C637.648 420.901 637.665 421.345 637.62 421.765C637.578 422.17 637.472 422.613 637.22 422.965C637.015 423.278 636.681 423.552 636.354 423.776C636.011 424.012 635.62 424.229 635.259 424.412C634.896 424.595 634.554 424.749 634.303 424.857C634.177 424.91 634.073 424.953 634.001 424.982C633.964 424.997 633.936 425.009 633.916 425.016L633.893 425.025L633.886 425.028L633.884 425.029C633.884 425.029 633.884 425.029 633.689 424.524L633.884 425.029L633.807 425.059L608.374 426.714L597.526 457.742L607.294 456.746C613.691 456.093 622.267 455.219 630.983 454.33C648.416 452.553 666.412 450.719 668.662 450.494C669.693 450.391 670.302 450.064 670.669 449.689C671.039 449.312 671.218 448.831 671.28 448.32C671.343 447.807 671.284 447.292 671.204 446.895C671.165 446.699 671.121 446.538 671.088 446.427C671.072 446.371 671.058 446.329 671.049 446.301C671.044 446.287 671.041 446.278 671.039 446.272L671.037 446.266L671.036 446.265L671.021 446.223L640.361 283.818L624.152 348.106L637.367 419.069Z" fill="#060606"/>
<path d="M628.162 340.046L620 285.486L614.73 295.394L623.792 346.222L628.162 340.046Z" fill="url(#paint9_radial)"/>
<path d="M640.437 281.303L628.162 340.046L620 285.486L640.437 281.303Z" fill="url(#paint10_radial)"/>
<path d="M503.736 461.97C503.736 461.97 499.495 462.999 498.723 459.847C498.466 455.858 495.574 436.427 495.574 436.427C495.574 436.427 495.574 435.848 495.96 435.14C493.903 435.848 493.582 440.545 493.582 440.545C493.582 440.545 495.96 461.841 496.345 464.35C496.795 466.86 500.651 467.696 500.651 467.696L600.012 458.56V458.109L603.932 452.126L503.736 461.97Z" fill="url(#paint11_linear)"/>
<path d="M610.36 423.43L604.382 452.126L503.672 461.97C503.672 461.97 499.431 462.999 498.659 459.846C498.402 455.857 495.51 436.427 495.51 436.427C495.51 436.427 495.382 433.145 501.23 432.631C507.079 432.116 610.36 423.43 610.36 423.43Z" fill="url(#paint12_radial)"/>
<path d="M499.623 460.812C499.366 456.823 496.474 437.392 496.474 437.392C496.474 437.392 496.346 434.111 502.194 433.596C507.721 433.145 599.177 425.425 610.167 424.524L610.359 423.688C610.359 423.688 507.143 432.373 501.294 432.824C495.446 433.338 495.574 436.62 495.574 436.62C495.574 436.62 498.402 456.05 498.723 460.04C498.981 460.94 499.495 461.519 500.137 461.841C499.88 461.584 499.752 461.262 499.623 460.812Z" fill="#E9DEC4"/>
<path d="M341.263 429.156L434.261 422.079C434.261 422.079 437.667 421.307 438.31 423.43C438.953 425.553 441.523 448.201 441.523 448.201C441.523 448.201 441.523 452.319 438.31 452.576C435.097 452.833 349.104 461.133 349.104 461.133C349.104 461.133 343.127 460.747 344.027 466.087C344.927 471.428 352.189 555.327 352.189 555.327C352.189 555.327 353.025 561.246 347.947 561.697C342.87 562.147 322.689 564.013 322.689 564.013C322.689 564.013 318.383 565.042 317.484 558.029C316.584 551.016 309.514 467.696 309.514 467.696L341.263 429.156Z" fill="url(#paint13_radial)"/>
<path d="M434.84 422.594C434.84 422.594 436.639 422.208 437.925 422.722C436.832 421.436 434.197 422.015 434.197 422.015L341.199 429.092L340.621 429.735L434.84 422.594Z" fill="#F5E8D6"/>
<path d="M208.355 464.994C208.355 460.04 208.355 443.247 208.355 443.247C208.355 443.247 207.005 438.228 212.853 437.07C218.702 435.912 302.059 429.092 302.059 429.092C302.059 429.092 306.879 428.706 307.651 426.454C308.101 425.167 307.779 421.886 307.779 421.886L300.71 339.145C300.71 339.145 300.838 335.22 303.602 334.899C306.108 334.641 326.546 333.033 329.888 332.775C329.824 332.775 329.759 332.711 329.759 332.711C329.759 332.711 305.787 334.577 303.023 334.834C300.26 335.092 300.131 339.081 300.131 339.081L307.201 421.822C307.201 421.822 307.522 425.039 307.072 426.39C306.301 428.577 301.481 429.028 301.481 429.028C301.481 429.028 218.252 435.912 212.339 437.07C206.426 438.228 207.84 443.247 207.84 443.247C207.84 443.247 207.84 460.04 207.84 464.994C207.84 469.112 210.99 469.305 212.082 469.24C210.668 469.112 208.355 468.532 208.355 464.994Z" fill="#E9D6BE"/>
<path d="M333.937 336.829C333.808 336.25 333.487 335.735 333.102 335.349C333.166 335.542 333.294 335.735 333.294 335.992L340.75 424.074L309.515 459.332L305.144 460.297L212.404 469.24C212.404 469.24 210.283 469.626 208.933 468.211C210.09 470.591 213.046 470.077 213.046 470.077L305.787 461.133L310.157 460.168L341.392 424.91L333.937 336.829Z" fill="url(#paint14_radial)"/>
<path d="M637.931 253.637L612.223 112.411L633.818 87.4475L633.689 86.6754L611.131 112.669L636.838 253.959L657.983 249.069L637.931 253.637Z" fill="#F1DCB3"/>
<path opacity="0.5" d="M379.889 152.495L371.342 130.169L370.635 130.234L379.44 153.332L596.67 140.142L597.12 139.305L379.889 152.495Z" fill="#F1DCB3"/>
<path d="M294.218 260.457C294.218 260.457 285.927 157.256 285.927 155.004C285.927 152.752 288.755 152.945 288.755 152.945L369.542 147.605V147.541L288.498 152.945C288.498 152.945 285.67 152.817 285.67 155.004C285.67 157.192 293.961 260.457 293.961 260.457L324.617 269.594V269.529L294.218 260.457Z" fill="#FDE1C6"/>
<path d="M324.554 270.173C324.554 270.173 324.618 270.237 324.618 270.43C324.746 269.851 324.554 269.594 324.554 269.594L292.612 259.943L292.676 260.586L324.554 270.173Z" fill="#FDE1C6"/>
<path d="M620.578 285.486L640.437 281.432V281.303L620 285.486L628.162 340.046L628.483 338.437L620.578 285.486Z" fill="#F1DCB3"/>
<path d="M295.954 298.418C296.404 302.857 296.789 306.46 296.853 307.425C297.046 310.707 301.224 311.222 301.224 311.222L324.682 309.806C324.682 309.806 326.803 309.034 327.638 308.326C327.703 308.262 327.767 308.198 327.831 308.069L295.954 298.418Z" fill="#594431"/>
<defs>
<radialGradient id="paint0_radial" cx="0" cy="0" r="1" gradientUnits="userSpaceOnUse" gradientTransform="translate(487.345 158.055) scale(78.3203 78.4062)">
<stop offset="0.3953" stop-color="#7D5A3A"/>
<stop offset="1" stop-color="#654A2F"/>
</radialGradient>
<radialGradient id="paint1_radial" cx="0" cy="0" r="1" gradientUnits="userSpaceOnUse" gradientTransform="translate(490.154 134.019) scale(85.6243 85.7182)">
<stop offset="0.3953" stop-color="#E2CBA5"/>
<stop offset="1" stop-color="#CAAA8B"/>
</radialGradient>
<radialGradient id="paint2_radial" cx="0" cy="0" r="1" gradientUnits="userSpaceOnUse" gradientTransform="translate(331.48 208.573) scale(53.942 54.0011)">
<stop stop-color="#C7A284"/>
<stop offset="0.6706" stop-color="#C09E83"/>
</radialGradient>
<radialGradient id="paint3_radial" cx="0" cy="0" r="1" gradientUnits="userSpaceOnUse" gradientTransform="translate(319.198 286.258) scale(32.5744 32.6102)">
<stop offset="0.2222" stop-color="#7A5C41"/>
<stop offset="0.8611" stop-color="#5C4636"/>
</radialGradient>
<radialGradient id="paint4_radial" cx="0" cy="0" r="1" gradientUnits="userSpaceOnUse" gradientTransform="translate(612.641 204.046) scale(66.7608 66.834)">
<stop offset="0.3953" stop-color="#EFD9B5"/>
<stop offset="1" stop-color="#CBB393"/>
</radialGradient>
<radialGradient id="paint5_radial" cx="0" cy="0" r="1" gradientUnits="userSpaceOnUse" gradientTransform="translate(636.546 153.146) scale(61.7532 61.8209)">
<stop offset="0.3953" stop-color="#EFD9B5"/>
<stop offset="1" stop-color="#CBB393"/>
</radialGradient>
<radialGradient id="paint6_radial" cx="0" cy="0" r="1" gradientUnits="userSpaceOnUse" gradientTransform="translate(388.414 479.34) scale(53.162 53.2204)">
<stop stop-color="#694127"/>
<stop offset="0.6759" stop-color="#4D321A"/>
</radialGradient>
<radialGradient id="paint7_radial" cx="0" cy="0" r="1" gradientUnits="userSpaceOnUse" gradientTransform="translate(304.344 438.1) scale(67.7326 67.8068)">
<stop offset="0.1085" stop-color="#C7B38B"/>
<stop offset="0.6706" stop-color="#C5A085"/>
</radialGradient>
<radialGradient id="paint8_radial" cx="0" cy="0" r="1" gradientUnits="userSpaceOnUse" gradientTransform="translate(274.187 458.622) scale(52.9368 52.9949)">
<stop stop-color="#694127"/>
<stop offset="0.6759" stop-color="#4D321A"/>
</radialGradient>
<radialGradient id="paint9_radial" cx="0" cy="0" r="1" gradientUnits="userSpaceOnUse" gradientTransform="translate(621.454 315.853) scale(21.9633 21.9872)">
<stop offset="0.3953" stop-color="#EFD9B5"/>
<stop offset="1" stop-color="#CBB393"/>
</radialGradient>
<radialGradient id="paint10_radial" cx="0" cy="0" r="1" gradientUnits="userSpaceOnUse" gradientTransform="translate(630.237 310.659) scale(21.958 21.9821)">
<stop offset="0.3953" stop-color="#EFD9B5"/>
<stop offset="1" stop-color="#CBB393"/>
</radialGradient>
<linearGradient id="paint11_linear" x1="504.237" y1="443.68" x2="517.189" y2="448.056" gradientUnits="userSpaceOnUse">
<stop stop-color="#EED5BC"/>
<stop offset="0.6706" stop-color="#6F5432"/>
</linearGradient>
<radialGradient id="paint12_radial" cx="0" cy="0" r="1" gradientUnits="userSpaceOnUse" gradientTransform="translate(520.29 431.809) scale(70.154 70.2308)">
<stop stop-color="#E7D1A9"/>
<stop offset="1" stop-color="#D1B695"/>
</radialGradient>
<radialGradient id="paint13_radial" cx="0" cy="0" r="1" gradientUnits="userSpaceOnUse" gradientTransform="translate(375.516 492.989) scale(70.4127 70.49)">
<stop stop-color="#C7B38B"/>
<stop offset="0.6706" stop-color="#C5A085"/>
</radialGradient>
<radialGradient id="paint14_radial" cx="0" cy="0" r="1" gradientUnits="userSpaceOnUse" gradientTransform="translate(275.108 402.711) scale(66.7734 66.8466)">
<stop stop-color="#694127"/>
<stop offset="0.6759" stop-color="#4D321A"/>
</radialGradient>
</defs>
</svg>
