<?xml version="1.0" encoding="utf-8"?>
<!-- Generator: Adobe Illustrator 24.1.0, SVG Export Plug-In . SVG Version: 6.00 Build 0)  -->
<svg version="1.1" id="Capa_1" xmlns="http://www.w3.org/2000/svg" xmlns:xlink="http://www.w3.org/1999/xlink" x="0px" y="0px"
	 viewBox="0 0 938 735" style="enable-background:new 0 0 938 735;" xml:space="preserve">
<style type="text/css">
	.st0{fill-rule:evenodd;clip-rule:evenodd;fill:#060606;}
	.st1{fill:url(#SVGID_1_);}
	.st2{fill:#D4B396;}
	.st3{fill:url(#SVGID_2_);}
	.st4{fill:#705D5D;}
	.st5{fill:url(#SVGID_3_);}
	.st6{fill:url(#SVGID_4_);}
	.st7{fill:#CAA88D;}
	.st8{fill:url(#SVGID_5_);}
	.st9{fill:url(#SVGID_6_);}
	.st10{fill:#67492D;}
	.st11{fill:#E5CCA5;}
	.st12{fill:url(#SVGID_7_);}
	.st13{fill:#593C21;}
	.st14{fill:url(#SVGID_8_);}
	.st15{fill:url(#SVGID_9_);}
	.st16{fill:#C39F82;}
	.st17{fill:url(#SVGID_10_);}
	.st18{fill:url(#SVGID_11_);}
	.st19{fill:url(#SVGID_12_);}
	.st20{fill:url(#SVGID_13_);}
	.st21{fill:#E9DEC4;}
	.st22{fill:url(#SVGID_14_);}
	.st23{fill:#F5E8D6;}
	.st24{fill:#E9D6BE;}
	.st25{fill:url(#SVGID_15_);}
	.st26{fill:#F1DCB3;}
	.st27{opacity:0.5;fill:#F1DCB3;enable-background:new    ;}
	.st28{fill:#FDE1C6;}
	.st29{fill:#594431;}
</style>
<path class="st0" d="M832.3,721.9L679.5,5.3l1-0.2l152.8,716.6L832.3,721.9z"/>
<path class="st0" d="M149.5,78.5l625-37.8l0.1,1l-625,37.8L149.5,78.5z"/>
<path class="st0" d="M118.2,734.3L98.7,79l1,0l19.5,655.4L118.2,734.3z"/>
<path class="st0" d="M24.9,721.3l912.9-102.9l0.1,1L25,722.3L24.9,721.3z"/>
<path class="st0" d="M575.3,734.5L317,7.1l0.9-0.3l258.2,727.4L575.3,734.5z"/>
<path class="st0" d="M108.6,721.5L726.7,0.3l0.7,0.6L109.4,722.1L108.6,721.5z"/>
<path class="st0" d="M542.1,717.1L696.3,6.8l1,0.2L543,717.3L542.1,717.1z"/>
<path class="st0" d="M24.7,300.5L374.3,40.8l0.6,0.8L25.3,301.3L24.7,300.5z"/>
<path class="st0" d="M81.3,218.2l282.2,287.1l-0.7,0.7L80.6,218.8L81.3,218.2z"/>
<path class="st0" d="M1.2,210L436,339.9l-0.3,0.9L0.9,210.9L1.2,210z"/>
<path class="st0" d="M435.7,339.9l238.1-60.1l0.2,0.9L436,340.8L435.7,339.9z"/>
<radialGradient id="SVGID_1_" cx="-795.7089" cy="1071.9736" r="1.0001" gradientTransform="matrix(78.3203 0 0 -78.4062 62807.5039 84207.4375)" gradientUnits="userSpaceOnUse">
	<stop  offset="0.3953" style="stop-color:#7D5A3A"/>
	<stop  offset="1" style="stop-color:#654A2F"/>
</radialGradient>
<path class="st1" d="M378,176l1.4-22.6l217.2-13.2l-8.2,20.5L378,176z"/>
<path class="st2" d="M370.6,130.2l8.8,23.1L378,176l-0.6-5l-6.7-20.9V130.2z"/>
<radialGradient id="SVGID_2_" cx="-796.5865" cy="1072.345" r="1" gradientTransform="matrix(85.6243 0 0 -85.7182 68697.3359 92053.4766)" gradientUnits="userSpaceOnUse">
	<stop  offset="0.3953" style="stop-color:#E2CBA5"/>
	<stop  offset="1" style="stop-color:#CAAA8B"/>
</radialGradient>
<path class="st3" d="M609.7,114.7l-239.1,15.6l8.8,23.1l217.2-13.2L609.7,114.7z"/>
<path class="st4" d="M377.6,176.4l-57.1,3.9c0,0-3.2-0.4-3.1,1.1c0.1,1.5-1.9-3.3-0.5-5c1.4-1.7,4-1.5,4-1.5l56.3-3.9L377.6,176.4z"
	/>
<radialGradient id="SVGID_3_" cx="-791.0577" cy="1070.0083" r="1.0002" gradientTransform="matrix(53.942 0 0 -54.0011 43002.7344 57990.1875)" gradientUnits="userSpaceOnUse">
	<stop  offset="0" style="stop-color:#C7A284"/>
	<stop  offset="0.6706" style="stop-color:#C09E83"/>
</radialGradient>
<path class="st5" d="M369.5,147.5l-81,5.4c0,0-2.8-0.1-2.8,2.1c0,2.2,8.3,105.5,8.3,105.5l30.7,9.1l-7.1-84.2c0,0-1-5.2-0.5-8.6
	c0.3-1.9,4.4-1.9,4.4-1.9l56-3.9L369.5,147.5z"/>
<radialGradient id="SVGID_4_" cx="-781.2567" cy="1065.866" r="1" gradientTransform="matrix(32.5744 0 0 -32.6102 25768.166 35044.3594)" gradientUnits="userSpaceOnUse">
	<stop  offset="0.2222" style="stop-color:#7A5C41"/>
	<stop  offset="0.8611" style="stop-color:#5C4636"/>
</radialGradient>
<path class="st6" d="M328.3,305l-2.4-34.3l-0.5-1.1l-0.8,0.1c0.1,0.2,0.3,0.7-0.2,1.5c-0.6,1-1.8,1.3-1.8,1.3s-25.9,1.2-27.6,1
	c-1.2-0.1-1.5-1.1-1.5-1.7l-0.3,1.2c0,0,3.5,31.1,3.7,34.5c0.2,3.3,4.4,3.8,4.4,3.8l23.5-1.4c0,0,2.1-0.8,3-1.5
	C328.5,307.6,328.3,305,328.3,305z"/>
<path class="st7" d="M292.6,259.9l0.8,11.5c0,0-0.2,1.9,1.5,2.1c1.7,0.2,27.6-1,27.6-1s1.2-0.2,1.8-1.3c0.6-1,0.2-1.6,0.2-1.6
	L292.6,259.9z"/>
<radialGradient id="SVGID_5_" cx="-793.9271" cy="1071.2208" r="1" gradientTransform="matrix(66.7608 0 0 -66.834 53615.8477 71798.0078)" gradientUnits="userSpaceOnUse">
	<stop  offset="0.3953" style="stop-color:#EFD9B5"/>
	<stop  offset="1" style="stop-color:#CBB393"/>
</radialGradient>
<path class="st8" d="M588.4,160.7l8.2-20.5l14.5-27.5L636.8,254l-22.1,41.4L588.4,160.7z"/>
<radialGradient id="SVGID_6_" cx="-792.948" cy="1070.8069" r="1" gradientTransform="matrix(61.7532 0 0 -61.8209 49603.625 66351.3906)" gradientUnits="userSpaceOnUse">
	<stop  offset="0.3953" style="stop-color:#EFD9B5"/>
	<stop  offset="1" style="stop-color:#CBB393"/>
</radialGradient>
<path class="st9" d="M633.7,86.7l-22.6,26L636.8,254l21.1-4.9l4-13.1L633.7,86.7z"/>
<path class="st10" d="M640.4,281.3l17.5-32.2l-21.1,4.9L620,285.5L640.4,281.3z"/>
<path class="st11" d="M610.4,423.4l-6,28.7L503.7,462c0,0-4.2,1-5-2.1c-0.3-4-3.1-23.4-3.1-23.4s-0.1-3.3,5.7-3.8
	C507.1,432.1,610.4,423.4,610.4,423.4z"/>
<radialGradient id="SVGID_7_" cx="-790.8388" cy="1069.9155" r="1" gradientTransform="matrix(53.162 0 0 -53.2204 42430.9844 57420.6719)" gradientUnits="userSpaceOnUse">
	<stop  offset="0" style="stop-color:#694127"/>
	<stop  offset="0.6759" style="stop-color:#4D321A"/>
</radialGradient>
<path class="st12" d="M438.3,452.6c-3.2,0.3-89.2,8.6-89.2,8.6s-6-0.4-5.1,5c0.3,1.4,0.9,8.2,1.8,17.4c7.5-0.8,81.4-8,85.6-8.6
	c4.4-0.5,4.9-2.8,4.9-2.8l1.7-7.6c0,0,2.8-11,3.3-12.8c0.2-0.7,0.1-1.5,0.1-2.3C441.1,450.6,440.4,452.4,438.3,452.6z"/>
<path class="st13" d="M351.7,559.1c-0.5,1.3-1.6,2.5-3.8,2.7c-5.1,0.5-25.3,2.3-25.3,2.3s-4.3,1-5.2-6c-0.3-2.1-1.1-11-2.1-22.5
	l1.4,23.9c0,0,2.2,12.7,2.8,15.6c0.6,3,4.8,2.6,4.8,2.6s18.5-1.1,24-2c5.5-0.9,4.5-3.3,4.5-3.3L351.7,559.1z"/>
<radialGradient id="SVGID_8_" cx="-794.1003" cy="1071.2938" r="1" gradientTransform="matrix(67.7326 0 0 -67.8068 54090.8164 73079.1094)" gradientUnits="userSpaceOnUse">
	<stop  offset="0.1085" style="stop-color:#C7B38B"/>
	<stop  offset="0.6706" style="stop-color:#C5A085"/>
</radialGradient>
<path class="st14" d="M333.3,335.9l7.5,88.1l-31.2,35.3l-4.4,1l-92.7,8.9c0,0-4.6,0.8-4.6-4.2c0-5,0-21.7,0-21.7s-1.3-5,4.5-6.2
	c5.9-1.2,89.1-8,89.1-8s4.8-0.4,5.6-2.6c0.5-1.3,0.1-4.6,0.1-4.6l-7.1-82.7c0,0,0.1-3.9,2.9-4.2c2.8-0.3,26.7-2.1,26.7-2.1
	S332.8,333.8,333.3,335.9z"/>
<radialGradient id="SVGID_9_" cx="-790.7729" cy="1069.8882" r="0.9991" gradientTransform="matrix(52.9368 0 0 -52.9949 42135.2461 57157.2422)" gradientUnits="userSpaceOnUse">
	<stop  offset="0" style="stop-color:#694127"/>
	<stop  offset="0.6759" style="stop-color:#4D321A"/>
</radialGradient>
<path class="st15" d="M309.5,459.3l-4.4,1l-92.7,8.9c0,0-3.1,0.5-4.2-2.2l-0.4,1.2l12.5,24.8l89.3-6.3l31.2-34.3l-0.3-28.1
	L309.5,459.3z"/>
<path class="st16" d="M341.3,429.2l93-7.1c0,0,3.4-0.8,4,1.4c0.6,2.1,3.2,24.8,3.2,24.8s0,4.1-3.2,4.4c-3.2,0.3-89.2,8.6-89.2,8.6
	s-6-0.4-5.1,5c0.9,5.3,8.2,89.2,8.2,89.2s0.8,5.9-4.2,6.4c-5.1,0.4-25.3,2.3-25.3,2.3s-4.3,1-5.2-6c-0.9-7-8-90.3-8-90.3
	L341.3,429.2z"/>
<path class="st0" d="M640.5,278.8l31.6,167.1c0,0,0,0,0,0c0,0,0,0.1,0.1,0.2c0,0.1,0.1,0.3,0.1,0.6c0.1,0.5,0.2,1.1,0.1,1.8
	c-0.1,0.7-0.3,1.4-0.9,2c-0.6,0.6-1.5,1-2.7,1.1c-2.2,0.2-20.2,2.1-37.7,3.8c-8.7,0.9-17.3,1.8-23.7,2.4l-10.6,1.1l0,0h0
	c0,0,0,0-0.1-0.5l0.1,0.5l-0.8,0.1l11.6-33.3l26-1.7c0,0,0,0,0,0c0.1,0,0.2-0.1,0.3-0.1c0.2-0.1,0.6-0.2,0.9-0.4
	c0.3-0.2,0.7-0.4,1-0.6c0.3-0.2,0.5-0.4,0.6-0.5l0,0l0,0c0.1-0.1,0.2-0.4,0.2-0.7c0-0.3,0-0.7,0-1c0-0.4-0.1-0.7-0.1-0.9
	c0-0.1,0-0.2-0.1-0.3c0,0,0-0.1,0-0.1l0,0l0,0l0,0L623,348.1L640.5,278.8z M637.4,419.1L637.4,419.1
	C637.4,419.1,637.4,419.1,637.4,419.1c0,0.1,0,0.1,0,0.1c0,0.1,0,0.2,0.1,0.3c0.1,0.3,0.1,0.6,0.2,1c0,0.4,0.1,0.8,0,1.3
	c0,0.4-0.1,0.8-0.4,1.2c-0.2,0.3-0.5,0.6-0.9,0.8c-0.3,0.2-0.7,0.5-1.1,0.6c-0.4,0.2-0.7,0.3-1,0.4c-0.1,0.1-0.2,0.1-0.3,0.1
	c0,0-0.1,0-0.1,0l0,0l0,0l0,0c0,0,0,0-0.2-0.5l0.2,0.5l-0.1,0l-25.4,1.7l-10.8,31l9.8-1c6.4-0.7,15-1.5,23.7-2.4
	c17.4-1.8,35.4-3.6,37.7-3.8c1-0.1,1.6-0.4,2-0.8c0.4-0.4,0.5-0.9,0.6-1.4c0.1-0.5,0-1-0.1-1.4c0-0.2-0.1-0.4-0.1-0.5
	c0-0.1,0-0.1,0-0.1c0,0,0,0,0,0l0,0l0,0l0,0l-30.7-162.4l-16.2,64.3L637.4,419.1z"/>
<radialGradient id="SVGID_10_" cx="-769.3028" cy="1060.8137" r="1.0003" gradientTransform="matrix(21.9633 0 0 -21.9872 17517.875 23640.1777)" gradientUnits="userSpaceOnUse">
	<stop  offset="0.3953" style="stop-color:#EFD9B5"/>
	<stop  offset="1" style="stop-color:#CBB393"/>
</radialGradient>
<path class="st17" d="M628.2,340l-8.2-54.6l-5.3,9.9l9.1,50.8L628.2,340z"/>
<radialGradient id="SVGID_11_" cx="-769.2944" cy="1060.8094" r="1.0005" gradientTransform="matrix(21.958 0 0 -21.9821 17522.3848 23629.4941)" gradientUnits="userSpaceOnUse">
	<stop  offset="0.3953" style="stop-color:#EFD9B5"/>
	<stop  offset="1" style="stop-color:#CBB393"/>
</radialGradient>
<path class="st18" d="M640.4,281.3L628.2,340l-8.2-54.6L640.4,281.3z"/>
<linearGradient id="SVGID_12_" gradientUnits="userSpaceOnUse" x1="504.2328" y1="291.6303" x2="517.1848" y2="287.2543" gradientTransform="matrix(1 0 0 -1 0 735.3228)">
	<stop  offset="0" style="stop-color:#EED5BC"/>
	<stop  offset="0.6706" style="stop-color:#6F5432"/>
</linearGradient>
<path class="st19" d="M503.7,462c0,0-4.2,1-5-2.1c-0.3-4-3.1-23.4-3.1-23.4s0-0.6,0.4-1.3c-2.1,0.7-2.4,5.4-2.4,5.4
	s2.4,21.3,2.8,23.8c0.5,2.5,4.3,3.3,4.3,3.3l99.4-9.1v-0.5l3.9-6L503.7,462z"/>
<radialGradient id="SVGID_13_" cx="-794.511" cy="1071.4674" r="1" gradientTransform="matrix(70.154 0 0 -70.2308 56258.4141 75681.8203)" gradientUnits="userSpaceOnUse">
	<stop  offset="0" style="stop-color:#E7D1A9"/>
	<stop  offset="1" style="stop-color:#D1B695"/>
</radialGradient>
<path class="st20" d="M610.4,423.4l-6,28.7L503.7,462c0,0-4.2,1-5-2.1c-0.3-4-3.1-23.4-3.1-23.4s-0.1-3.3,5.7-3.8
	C507.1,432.1,610.4,423.4,610.4,423.4z"/>
<path class="st21" d="M499.6,460.8c-0.3-4-3.1-23.4-3.1-23.4s-0.1-3.3,5.7-3.8c5.5-0.5,97-8.2,108-9.1l0.2-0.8
	c0,0-103.2,8.7-109.1,9.1c-5.8,0.5-5.7,3.8-5.7,3.8s2.8,19.4,3.1,23.4c0.3,0.9,0.8,1.5,1.4,1.8C499.9,461.6,499.8,461.3,499.6,460.8
	z"/>
<radialGradient id="SVGID_14_" cx="-794.5532" cy="1071.4851" r="1.0001" gradientTransform="matrix(70.4127 0 0 -70.49 56322.1484 76021.9844)" gradientUnits="userSpaceOnUse">
	<stop  offset="0" style="stop-color:#C7B38B"/>
	<stop  offset="0.6706" style="stop-color:#C5A085"/>
</radialGradient>
<path class="st22" d="M341.3,429.2l93-7.1c0,0,3.4-0.8,4,1.4c0.6,2.1,3.2,24.8,3.2,24.8s0,4.1-3.2,4.4c-3.2,0.3-89.2,8.6-89.2,8.6
	s-6-0.4-5.1,5c0.9,5.3,8.2,89.2,8.2,89.2s0.8,5.9-4.2,6.4c-5.1,0.4-25.3,2.3-25.3,2.3s-4.3,1-5.2-6c-0.9-7-8-90.3-8-90.3
	L341.3,429.2z"/>
<path class="st23" d="M434.8,422.6c0,0,1.8-0.4,3.1,0.1c-1.1-1.3-3.7-0.7-3.7-0.7l-93,7.1l-0.6,0.6L434.8,422.6z"/>
<path class="st24" d="M208.4,465c0-5,0-21.7,0-21.7s-1.3-5,4.5-6.2c5.8-1.2,89.2-8,89.2-8s4.8-0.4,5.6-2.6c0.5-1.3,0.1-4.6,0.1-4.6
	l-7.1-82.7c0,0,0.1-3.9,2.9-4.2c2.5-0.3,22.9-1.9,26.3-2.1c-0.1,0-0.1-0.1-0.1-0.1s-24,1.9-26.7,2.1c-2.8,0.3-2.9,4.2-2.9,4.2
	l7.1,82.7c0,0,0.3,3.2-0.1,4.6c-0.8,2.2-5.6,2.6-5.6,2.6s-83.2,6.9-89.1,8c-5.9,1.2-4.5,6.2-4.5,6.2s0,16.8,0,21.7
	c0,4.1,3.2,4.3,4.2,4.2C210.7,469.1,208.4,468.5,208.4,465z"/>
<radialGradient id="SVGID_15_" cx="-793.9285" cy="1071.2212" r="1" gradientTransform="matrix(66.7734 0 0 -66.8466 53288.4688 72010.2344)" gradientUnits="userSpaceOnUse">
	<stop  offset="0" style="stop-color:#694127"/>
	<stop  offset="0.6759" style="stop-color:#4D321A"/>
</radialGradient>
<path class="st25" d="M333.9,336.8c-0.1-0.6-0.5-1.1-0.8-1.5c0.1,0.2,0.2,0.4,0.2,0.6l7.5,88.1l-31.2,35.3l-4.4,1l-92.7,8.9
	c0,0-2.1,0.4-3.5-1c1.2,2.4,4.1,1.9,4.1,1.9l92.7-8.9l4.4-1l31.2-35.3L333.9,336.8z"/>
<path class="st26" d="M637.9,253.6l-25.7-141.2l21.6-25l-0.1-0.8l-22.6,26L636.8,254l21.1-4.9L637.9,253.6z"/>
<path class="st27" d="M379.9,152.5l-8.5-22.3l-0.7,0.1l8.8,23.1l217.2-13.2l0.5-0.8L379.9,152.5z"/>
<path class="st28" d="M294.2,260.5c0,0-8.3-103.2-8.3-105.5s2.8-2.1,2.8-2.1l80.8-5.3v-0.1l-81,5.4c0,0-2.8-0.1-2.8,2.1
	c0,2.2,8.3,105.5,8.3,105.5l30.7,9.1v-0.1L294.2,260.5z"/>
<path class="st28" d="M324.6,270.2c0,0,0.1,0.1,0.1,0.3c0.1-0.6-0.1-0.8-0.1-0.8l-31.9-9.7l0.1,0.6L324.6,270.2z"/>
<path class="st26" d="M620.6,285.5l19.9-4.1v-0.1l-20.4,4.2l8.2,54.6l0.3-1.6L620.6,285.5z"/>
<path class="st29" d="M296,298.4c0.4,4.4,0.8,8,0.9,9c0.2,3.3,4.4,3.8,4.4,3.8l23.5-1.4c0,0,2.1-0.8,3-1.5c0.1-0.1,0.1-0.1,0.2-0.3
	L296,298.4z"/>
</svg>
